<svg id="swift3-ai-background" version="1.1" xmlns="http://www.w3.org/2000/svg" style="background:#2c3539;" width="1200px">
      <defs>
            <filter id="f2" filterUnits="userSpaceOnUse" x="-50%" y="-50%" width="200%" height="200%">
                  <feGaussianBlur in="SourceGraphic" stdDeviation="5" result="blur5"/>
                  <feGaussianBlur in="SourceGraphic" stdDeviation="10" result="blur10"/>
                  <feGaussianBlur in="SourceGraphic" stdDeviation="20" result="blur20"/>
                  <feGaussianBlur in="SourceGraphic" stdDeviation="30" result="blur30"/>
                  <feGaussianBlur in="SourceGraphic" stdDeviation="50" result="blur50"/>

                  <feMerge result="blur-merged">
                    <feMergeNode in="blur10"/>
                    <feMergeNode in="blur20"/>
                    <feMergeNode in="blur30"/>
                    <feMergeNode in="blur50"/>
                  </feMerge>

                  <feColorMatrix result="glow-blur" in="blur-merged" type="matrix" values="1 0 0 0 0 0 0.06 0 0 0 0 0 0.44 0 0 0 0 0 1 0" />
                  <feMerge>
                    <feMergeNode in="glow-blur"/>
                    <feMergeNode in="blur5"/>
                    <feMergeNode in="SourceGraphic"/>
                  </feMerge>
          </filter>

            <pattern id="pixel" x="0" y="0" width="10" height="10" patternUnits="userSpaceOnUse" >
                  <rect x="0" y="0" width="4" height="4" rx="15" style="stroke: none; fill: #49e186" />
            </pattern>

            <pattern id="pixel-transparent" x="0" y="0" width="10" height="10" patternUnits="userSpaceOnUse" >
                  <rect x="0" y="0" width="4" height="4" rx="15" style="stroke: #356a51; fill: transparent" />
            </pattern>

            <symbol id="pixel-glow" x="0" y="-5" width="10" height="20" patternUnits="userSpaceOnUse">
                  <rect x="0" y="5" width="7" height="7" rx="15" stroke="#356a51" fill="#49e186" filter="url(#f2)"></rect>
            </symbol>
      </defs>

      <rect x="80" y="400" width="10" height="30" stroke="none" fill="url(#pixel)"/>

      <rect x="100" y="200" width="10" height="10" stroke="none" fill="url(#pixel)"/>
      <rect x="100" y="240" width="10" height="10" stroke="none" fill="url(#pixel)"/>
      <rect x="100" y="250" width="10" height="10" stroke="none" fill="url(#pixel-transparent)"/>
      <rect x="100" y="270" width="10" height="10" stroke="none" fill="url(#pixel)"/>
      <rect x="100" y="300" width="10" height="10" stroke="none" fill="url(#pixel)"/>
      <rect x="100" y="320" width="10" height="10" stroke="none" fill="url(#pixel-transparent)"/>
      <rect x="100" y="330" width="10" height="10" stroke="none" fill="url(#pixel-transparent)"/>

      <rect x="120" y="400" width="10" height="30" stroke="none" fill="url(#pixel)"/>
      <rect x="120" y="430" width="10" height="10" stroke="none" fill="url(#pixel-transparent)"/>

      <rect x="200" y="140" width="10" height="20" stroke="none" fill="url(#pixel)"/>
      <rect x="200" y="160" width="10" height="10" stroke="none" fill="url(#pixel-transparent)"/>
      <rect x="200" y="170" width="10" height="10" stroke="none" fill="url(#pixel)"/>
      <rect x="200" y="270" width="10" height="10" stroke="none" fill="url(#pixel)"/>
      <rect x="200" y="280" width="10" height="20" stroke="none" fill="url(#pixel-transparent)"/>
      <rect x="200" y="300" width="10" height="10" stroke="none" fill="url(#pixel)"/>

      <rect x="220" y="340" width="10" height="20" stroke="none" fill="url(#pixel-transparent)"/>
      <rect x="220" y="360" width="10" height="20" stroke="none" fill="url(#pixel)"/>
      <rect x="220" y="390" width="10" height="20" stroke="none" fill="url(#pixel-transparent)"/>
      <rect x="220" y="410" width="10" height="20" stroke="none" fill="url(#pixel)"/>
      <rect x="220" y="430" width="20" height="10" stroke="none" fill="url(#pixel-transparent)"/>
      <rect x="220" y="460" width="10" height="10" stroke="none" fill="url(#pixel-transparent)"/>
      <rect x="220" y="470" width="10" height="10" stroke="none" fill="url(#pixel)"/>

      <rect x="240" y="400" width="10" height="10" stroke="none" fill="url(#pixel)"/>
      <use href="#pixel-glow" x="240" y="410" width="50" height="50"/>
      <rect x="240" y="420" width="10" height="20" stroke="none" fill="url(#pixel)"/>

      <rect x="280" y="120" width="10" height="10" stroke="none" fill="url(#pixel-transparent)"/>

      <rect x="300" y="100" width="10" height="10" stroke="none" fill="url(#pixel-transparent)"/>

      <rect x="320" y="50" width="10" height="20" stroke="none" fill="url(#pixel-transparent)"/>
      <rect x="320" y="70" width="10" height="10" stroke="none" fill="url(#pixel)"/>
      <rect x="320" y="90" width="10" height="10" stroke="none" fill="url(#pixel-transparent)"/>
      <rect x="320" y="110" width="10" height="10" stroke="none" fill="url(#pixel)"/>
      <rect x="320" y="130" width="10" height="10" stroke="none" fill="url(#pixel-transparent)"/>
      <rect x="320" y="150" width="10" height="10" stroke="none" fill="url(#pixel-transparent)"/>
      <rect x="320" y="160" width="10" height="10" stroke="none" fill="url(#pixel)"/>
      <rect x="320" y="190" width="10" height="10" stroke="none" fill="url(#pixel)"/>
      <rect x="320" y="220" width="10" height="10" stroke="none" fill="url(#pixel)"/>
      <rect x="320" y="250" width="10" height="10" stroke="none" fill="url(#pixel-transparent)"/>
      <rect x="320" y="260" width="10" height="10" stroke="none" fill="url(#pixel)"/>

      <rect x="330" y="270" width="10" height="30" stroke="none" fill="url(#pixel)"/>
      <rect x="330" y="440" width="10" height="30" stroke="none" fill="url(#pixel)"/>

      <rect x="340" y="180" width="10" height="10" stroke="none" fill="url(#pixel)"/>
      <rect x="340" y="250" width="10" height="10" stroke="none" fill="url(#pixel)"/>
      <rect x="340" y="260" width="10" height="10" stroke="none" fill="url(#pixel-transparent)"/>
      <rect x="340" y="270" width="10" height="30" stroke="none" fill="url(#pixel)"/>
      <rect x="340" y="300" width="10" height="20" stroke="none" fill="url(#pixel-transparent)"/>
      <rect x="340" y="330" width="10" height="10" stroke="none" fill="url(#pixel)"/>
      <rect x="340" y="350" width="10" height="10" stroke="none" fill="url(#pixel-transparent)"/>
      <rect x="340" y="370" width="10" height="10" stroke="none" fill="url(#pixel-transparent)"/>
      <rect x="340" y="380" width="10" height="10" stroke="none" fill="url(#pixel)"/>
      <rect x="340" y="400" width="10" height="10" stroke="none" fill="url(#pixel)"/>
      <rect x="340" y="420" width="10" height="10" stroke="none" fill="url(#pixel-transparent)"/>

      <rect x="350" y="120" width="10" height="10" stroke="none" fill="url(#pixel)"/>

      <rect x="360" y="80" width="10" height="10" stroke="none" fill="url(#pixel-transparent)"/>
      <rect x="360" y="90" width="10" height="10" stroke="none" fill="url(#pixel)"/>
      <rect x="360" y="120" width="10" height="10" stroke="none" fill="url(#pixel-transparent)"/>

      <rect x="370" y="80" width="10" height="10" stroke="none" fill="url(#pixel)"/>
      <rect x="370" y="110" width="10" height="20" stroke="none" fill="url(#pixel)"/>

      <rect x="380" y="120" width="10" height="10" stroke="none" fill="url(#pixel-transparent)"/>

      <rect x="390" y="110" width="10" height="10" stroke="none" fill="url(#pixel-transparent)"/>
      <rect x="390" y="120" width="10" height="30" stroke="none" fill="url(#pixel)"/>

      <rect x="400" y="60" width="10" height="10" stroke="none" fill="url(#pixel)"/>
      <rect x="400" y="80" width="10" height="10" stroke="none" fill="url(#pixel)"/>
      <rect x="400" y="110" width="10" height="10" stroke="none" fill="url(#pixel)"/>
      <rect x="400" y="150" width="10" height="10" stroke="none" fill="url(#pixel)"/>

      <rect x="410" y="70" width="10" height="10" stroke="none" fill="url(#pixel)"/>
      <rect x="410" y="100" width="10" height="10" stroke="none" fill="url(#pixel)"/>
      <rect x="410" y="120" width="10" height="20" stroke="none" fill="url(#pixel)"/>

      <rect x="420" y="90" width="10" height="40" stroke="none" fill="url(#pixel-transparent)"/>
      <rect x="420" y="200" width="10" height="10" stroke="none" fill="url(#pixel)"/>

      <rect x="430" y="50" width="10" height="10" stroke="none" fill="url(#pixel-transparent)"/>
      <rect x="430" y="90" width="10" height="10" stroke="none" fill="url(#pixel-transparent)"/>
      <rect x="430" y="110" width="10" height="10" stroke="none" fill="url(#pixel-transparent)"/>
      <rect x="430" y="200" width="10" height="20" stroke="none" fill="url(#pixel-transparent)"/>

      <rect x="440" y="90" width="10" height="10" stroke="none" fill="url(#pixel-transparent)"/>
      <rect x="440" y="100" width="10" height="10" stroke="none" fill="url(#pixel)"/>
      <rect x="440" y="140" width="10" height="10" stroke="none" fill="url(#pixel)"/>
      <rect x="440" y="150" width="10" height="10" stroke="none" fill="url(#pixel-transparent)"/>

      <rect x="450" y="90" width="10" height="30" stroke="none" fill="url(#pixel-transparent)"/>

      <rect x="460" y="90" width="10" height="10" stroke="none" fill="url(#pixel)"/>
      <rect x="460" y="100" width="10" height="10" stroke="none" fill="url(#pixel-transparent)"/>
      <rect x="460" y="110" width="10" height="10" stroke="none" fill="url(#pixel)"/>
      <rect x="460" y="120" width="10" height="10" stroke="none" fill="url(#pixel-transparent)"/>

      <rect x="470" y="50" width="10" height="40" stroke="none" fill="url(#pixel)"/>

      <rect x="480" y="70" width="10" height="20" stroke="none" fill="url(#pixel-transparent)"/>
      <rect x="480" y="90" width="10" height="10" stroke="none" fill="url(#pixel)"/>
      <rect x="480" y="100" width="10" height="20" stroke="none" fill="url(#pixel-transparent)"/>

      <use href="#pixel-glow" x="490" y="60" width="50" height="50"/>

      <rect x="510" y="110" width="10" height="10" stroke="none" fill="url(#pixel)"/>

      <rect x="520" y="80" width="10" height="10" stroke="none" fill="url(#pixel-transparent)"/>
      <rect x="520" y="90" width="10" height="10" stroke="none" fill="url(#pixel)"/>
      <rect x="520" y="110" width="10" height="10" stroke="none" fill="url(#pixel-transparent)"/>

      <rect x="530" y="80" width="10" height="10" stroke="none" fill="url(#pixel)"/>
      <rect x="530" y="95" width="10" height="10" stroke="none" fill="url(#pixel)"/>
      <rect x="530" y="110" width="10" height="10" stroke="none" fill="url(#pixel)"/>

      <rect x="540" y="140" width="10" height="10" stroke="none" fill="url(#pixel-transparent)"/>

      <rect x="550" y="110" width="10" height="10" stroke="none" fill="url(#pixel-transparent)"/>
      <rect x="550" y="120" width="10" height="30" stroke="none" fill="url(#pixel)"/>
      <rect x="550" y="170" width="10" height="10" stroke="none" fill="url(#pixel)"/>
      <rect x="550" y="200" width="10" height="10" stroke="none" fill="url(#pixel)"/>
      <rect x="550" y="250" width="10" height="10" stroke="none" fill="url(#pixel-transparent)"/>

      <rect x="560" y="70" width="10" height="10" stroke="none" fill="url(#pixel)"/>
      <rect x="560" y="100" width="10" height="20" stroke="none" fill="url(#pixel)"/>

      <rect x="570" y="50" width="10" height="20" stroke="none" fill="url(#pixel)"/>
      <rect x="570" y="80" width="10" height="20" stroke="none" fill="url(#pixel)"/>

      <rect x="580" y="70" width="10" height="20" stroke="none" fill="url(#pixel-transparent)"/>
      <rect x="580" y="90" width="10" height="10" stroke="none" fill="url(#pixel)"/>
      <rect x="580" y="100" width="10" height="20" stroke="none" fill="url(#pixel-transparent)"/>

      <rect x="590" y="70" width="10" height="40" stroke="none" fill="url(#pixel-transparent)"/>
      <use href="#pixel-glow" x="590" y="110" width="50" height="50"/>

      <rect x="600" y="40" width="10" height="10" stroke="none" fill="url(#pixel-transparent)"/>
      <rect x="600" y="50" width="10" height="30" stroke="none" fill="url(#pixel)"/>
      <rect x="600" y="80" width="10" height="10" stroke="none" fill="url(#pixel-transparent)"/>
      <rect x="600" y="270" width="10" height="30" stroke="none" fill="url(#pixel)"/>

      <rect x="610" y="40" width="10" height="10" stroke="none" fill="url(#pixel)"/>
      <rect x="610" y="80" width="10" height="10" stroke="none" fill="url(#pixel-transparent)"/>
      <rect x="610" y="90" width="10" height="10" stroke="none" fill="url(#pixel-transparent)"/>
      <rect x="610" y="110" width="10" height="10" stroke="none" fill="url(#pixel)"/>
      <rect x="610" y="160" width="10" height="10" stroke="none" fill="url(#pixel)"/>
      <rect x="610" y="190" width="10" height="20" stroke="none" fill="url(#pixel-transparent)"/>

      <rect x="620" y="80" width="10" height="30" stroke="none" fill="url(#pixel-transparent)"/>
      <rect x="620" y="270" width="10" height="30" stroke="none" fill="url(#pixel)"/>
      <rect x="620" y="300" width="10" height="10" stroke="none" fill="url(#pixel-transparent)"/>

      <rect x="630" y="60" width="10" height="10" stroke="none" fill="url(#pixel-transparent)"/>
      <rect x="630" y="70" width="10" height="30" stroke="none" fill="url(#pixel)"/>

      <rect x="640" y="80" width="10" height="10" stroke="none" fill="url(#pixel-transparent)"/>
      <rect x="640" y="90" width="10" height="10" stroke="none" fill="url(#pixel)"/>
      <rect x="640" y="100" width="10" height="10" stroke="none" fill="url(#pixel-transparent)"/>
      <rect x="640" y="110" width="10" height="10" stroke="none" fill="url(#pixel)"/>

      <rect x="650" y="110" width="10" height="40" stroke="none" fill="url(#pixel)"/>
      <rect x="650" y="150" width="10" height="10" stroke="none" fill="url(#pixel-transparent)"/>

      <rect x="660" y="80" width="10" height="10" stroke="none" fill="url(#pixel-transparent)"/>
      <rect x="660" y="110" width="10" height="10" stroke="none" fill="url(#pixel-transparent)"/>
      <rect x="660" y="120" width="10" height="10" stroke="none" fill="url(#pixel)"/>

      <rect x="670" y="80" width="10" height="10" stroke="none" fill="url(#pixel)"/>

      <rect x="700" y="20" width="10" height="10" stroke="none" fill="url(#pixel-transparent)"/>
      <rect x="700" y="30" width="10" height="10" stroke="none" fill="url(#pixel)"/>
      <rect x="700" y="40" width="10" height="10" stroke="none" fill="url(#pixel-transparent)"/>
      <rect x="700" y="50" width="10" height="10" stroke="none" fill="url(#pixel)"/>
      <use href="#pixel-glow" x="700" y="90" width="50" height="50"/>
      <rect x="700" y="160" width="10" height="10" stroke="none" fill="url(#pixel)"/>
      <rect x="700" y="170" width="10" height="10" stroke="none" fill="url(#pixel-transparent)"/>
      <rect x="700" y="180" width="10" height="10" stroke="none" fill="url(#pixel-transparent)"/>
      <rect x="700" y="190" width="10" height="10" stroke="none" fill="url(#pixel)"/>

      <rect x="720" y="210" width="10" height="20" stroke="none" fill="url(#pixel-transparent)"/>
      <rect x="720" y="230" width="10" height="20" stroke="none" fill="url(#pixel)"/>
      <rect x="720" y="260" width="10" height="20" stroke="none" fill="url(#pixel-transparent)"/>
      <rect x="720" y="280" width="10" height="20" stroke="none" fill="url(#pixel)"/>
      <rect x="720" y="300" width="20" height="10" stroke="none" fill="url(#pixel-transparent)"/>
      <rect x="720" y="370" width="10" height="10" stroke="none" fill="url(#pixel-transparent)"/>
      <rect x="720" y="390" width="10" height="10" stroke="none" fill="url(#pixel)"/>

      <rect x="740" y="270" width="10" height="10" stroke="none" fill="url(#pixel)"/>
      <use href="#pixel-glow" x="740" y="280" width="50" height="50"/>
      <rect x="740" y="290" width="10" height="20" stroke="none" fill="url(#pixel)"/>

      <rect x="840" y="120" width="10" height="30" stroke="none" fill="url(#pixel)"/>
      <rect x="840" y="320" width="10" height="30" stroke="none" fill="url(#pixel)"/>

      <rect x="850" y="110" width="10" height="10" stroke="none" fill="url(#pixel-transparent)"/>
      <rect x="850" y="120" width="10" height="30" stroke="none" fill="url(#pixel)"/>
      <rect x="850" y="150" width="10" height="20" stroke="none" fill="url(#pixel-transparent)"/>
      <rect x="850" y="190" width="10" height="10" stroke="none" fill="url(#pixel)"/>
      <rect x="850" y="220" width="10" height="10" stroke="none" fill="url(#pixel-transparent)"/>
      <rect x="850" y="250" width="10" height="10" stroke="none" fill="url(#pixel-transparent)"/>
      <rect x="850" y="260" width="10" height="10" stroke="none" fill="url(#pixel)"/>
      <rect x="850" y="280" width="10" height="10" stroke="none" fill="url(#pixel-transparent)"/>
      <rect x="850" y="310" width="10" height="10" stroke="none" fill="url(#pixel-transparent)"/>

      <rect x="900" y="180" width="10" height="10" stroke="none" fill="url(#pixel-transparent)"/>

      <rect x="910" y="140" width="10" height="10" stroke="none" fill="url(#pixel)"/>
      <rect x="910" y="180" width="10" height="10" stroke="none" fill="url(#pixel)"/>

      <rect x="920" y="120" width="10" height="10" stroke="none" fill="url(#pixel-transparent)"/>
      <rect x="920" y="140" width="10" height="10" stroke="none" fill="url(#pixel-transparent)"/>
      <rect x="920" y="160" width="10" height="10" stroke="none" fill="url(#pixel-transparent)"/>
      <rect x="920" y="180" width="10" height="10" stroke="none" fill="url(#pixel)"/>
      <rect x="920" y="200" width="10" height="10" stroke="none" fill="url(#pixel)"/>

      <rect x="930" y="100" width="10" height="70" stroke="none" fill="url(#pixel)"/>
      <rect x="930" y="170" width="10" height="20" stroke="none" fill="url(#pixel-transparent)"/>
      <rect x="930" y="190" width="10" height="20" stroke="none" fill="url(#pixel)"/>

      <rect x="940" y="140" width="10" height="10" stroke="none" fill="url(#pixel-transparent)"/>
      <rect x="940" y="150" width="10" height="10" stroke="none" fill="url(#pixel)"/>
      <rect x="940" y="160" width="10" height="50" stroke="none" fill="url(#pixel-transparent)"/>
      <rect x="940" y="300" width="10" height="10" stroke="none" fill="url(#pixel)"/>
      <rect x="940" y="310" width="10" height="10" stroke="none" fill="url(#pixel-transparent)"/>
      <rect x="940" y="320" width="10" height="10" stroke="none" fill="url(#pixel)"/>
      <rect x="940" y="330" width="10" height="40" stroke="none" fill="url(#pixel-transparent)"/>

      <rect x="950" y="100" width="10" height="20" stroke="none" fill="url(#pixel)"/>
      <rect x="950" y="120" width="10" height="10" stroke="none" fill="url(#pixel-transparent)"/>
      <rect x="950" y="130" width="10" height="40" stroke="none" fill="url(#pixel)"/>
      <rect x="950" y="170" width="10" height="10" stroke="none" fill="url(#pixel-transparent)"/>
      <rect x="950" y="180" width="10" height="30" stroke="none" fill="url(#pixel)"/>

      <rect x="960" y="120" width="10" height="120" stroke="none" fill="url(#pixel-transparent)"/>

      <rect x="970" y="160" width="10" height="30" stroke="none" fill="url(#pixel)"/>
      <rect x="970" y="190" width="10" height="10" stroke="none" fill="url(#pixel-transparent)"/>
      <rect x="970" y="200" width="10" height="50" stroke="none" fill="url(#pixel)"/>

      <rect x="980" y="140" width="10" height="10" stroke="none" fill="url(#pixel)"/>
      <rect x="980" y="150" width="10" height="10" stroke="none" fill="url(#pixel-transparent)"/>
      <rect x="980" y="160" width="10" height="20" stroke="none" fill="url(#pixel)"/>
      <rect x="980" y="180" width="10" height="10" stroke="none" fill="url(#pixel-transparent)"/>
      <rect x="980" y="190" width="10" height="30" stroke="none" fill="url(#pixel)"/>
      <rect x="980" y="220" width="10" height="20" stroke="none" fill="url(#pixel-transparent)"/>
      <rect x="980" y="240" width="10" height="10" stroke="none" fill="url(#pixel)"/>
      <rect x="980" y="480" width="10" height="30" stroke="none" fill="url(#pixel)"/>

      <rect x="990" y="70" width="10" height="10" stroke="none" fill="url(#pixel)"/>
      <rect x="990" y="90" width="10" height="20" stroke="none" fill="url(#pixel-transparent)"/>
      <rect x="990" y="110" width="10" height="20" stroke="none" fill="url(#pixel)"/>
      <rect x="990" y="120" width="10" height="130" stroke="none" fill="url(#pixel-transparent)"/>
      <use href="#pixel-glow" x="990" y="250" width="50" height="50"/>
      <rect x="990" y="300" width="10" height="10" stroke="none" fill="url(#pixel)"/>
      <rect x="990" y="330" width="10" height="10" stroke="none" fill="url(#pixel)"/>
      <rect x="990" y="340" width="10" height="10" stroke="none" fill="url(#pixel-transparent)"/>
      <rect x="990" y="360" width="10" height="10" stroke="none" fill="url(#pixel)"/>
      <rect x="990" y="400" width="10" height="10" stroke="none" fill="url(#pixel)"/>
      <rect x="990" y="420" width="10" height="20" stroke="none" fill="url(#pixel-transparent)"/>

      <rect x="1000" y="130" width="10" height="10" stroke="none" fill="url(#pixel-transparent)"/>
      <rect x="1000" y="140" width="10" height="10" stroke="none" fill="url(#pixel)"/>
      <rect x="1000" y="150" width="10" height="20" stroke="none" fill="url(#pixel-transparent)"/>
      <rect x="1000" y="170" width="10" height="20" stroke="none" fill="url(#pixel)"/>
      <rect x="1000" y="190" width="10" height="10" stroke="none" fill="url(#pixel-transparent)"/>
      <rect x="1000" y="200" width="10" height="10" stroke="none" fill="url(#pixel)"/>
      <rect x="1000" y="210" width="10" height="20" stroke="none" fill="url(#pixel-transparent)"/>
      <rect x="1000" y="230" width="10" height="10" stroke="none" fill="url(#pixel)"/>
      <rect x="1000" y="240" width="10" height="10" stroke="none" fill="url(#pixel-transparent)"/>
      <rect x="1000" y="480" width="10" height="30" stroke="none" fill="url(#pixel)"/>
      <rect x="1000" y="510" width="10" height="10" stroke="none" fill="url(#pixel-transparent)"/>

      <rect x="1010" y="100" width="10" height="70" stroke="none" fill="url(#pixel)"/>
      <rect x="1010" y="170" width="10" height="10" stroke="none" fill="url(#pixel-transparent)"/>
      <rect x="1010" y="180" width="10" height="50" stroke="none" fill="url(#pixel)"/>
      <rect x="1010" y="240" width="20" height="10" stroke="none" fill="url(#pixel)"/>

      <rect x="1020" y="150" width="10" height="30" stroke="none" fill="url(#pixel)"/>

      <rect x="1030" y="120" width="10" height="50" stroke="none" fill="url(#pixel)"/>
      <use href="#pixel-glow" x="1030" y="170" width="50" height="50"/>
      <rect x="1030" y="220" width="10" height="10" stroke="none" fill="url(#pixel-transparent)"/>
      <rect x="1030" y="230" width="10" height="20" stroke="none" fill="url(#pixel)"/>

      <rect x="1040" y="140" width="10" height="10" stroke="none" fill="url(#pixel)"/>
      <rect x="1040" y="150" width="10" height="10" stroke="none" fill="url(#pixel-transparent)"/>
      <rect x="1040" y="160" width="10" height="10" stroke="none" fill="url(#pixel)"/>
      <rect x="1040" y="170" width="10" height="10" stroke="none" fill="url(#pixel-transparent)"/>

      <rect x="1050" y="130" width="10" height="10" stroke="none" fill="url(#pixel-transparent)"/>
      <rect x="1050" y="140" width="10" height="40" stroke="none" fill="url(#pixel)"/>
      <rect x="1050" y="180" width="10" height="10" stroke="none" fill="url(#pixel-transparent)"/>
      <rect x="1050" y="190" width="10" height="10" stroke="none" fill="url(#pixel)"/>
      <rect x="1050" y="220" width="10" height="10" stroke="none" fill="url(#pixel)"/>
      <rect x="1050" y="240" width="10" height="10" stroke="none" fill="url(#pixel)"/>

      <rect x="1060" y="120" width="10" height="50" stroke="none" fill="url(#pixel-transparent)"/>
      <rect x="1060" y="170" width="10" height="10" stroke="none" fill="url(#pixel)"/>
      <rect x="1060" y="180" width="10" height="20" stroke="none" fill="url(#pixel-transparent)"/>
      <rect x="1060" y="200" width="10" height="10" stroke="none" fill="url(#pixel)"/>
      <rect x="1060" y="220" width="10" height="10" stroke="none" fill="url(#pixel-transparent)"/>
      <rect x="1060" y="230" width="10" height="10" stroke="none" fill="url(#pixel)"/>

      <rect x="1070" y="90" width="10" height="50" stroke="none" fill="url(#pixel-transparent)"/>
      <rect x="1070" y="140" width="10" height="10" stroke="none" fill="url(#pixel)"/>
      <rect x="1070" y="150" width="10" height="10" stroke="none" fill="url(#pixel-transparent)"/>
      <rect x="1070" y="160" width="10" height="20" stroke="none" fill="url(#pixel)"/>
      <rect x="1070" y="190" width="10" height="70" stroke="none" fill="url(#pixel)"/>

      <rect x="1080" y="190" width="10" height="10" stroke="none" fill="url(#pixel)"/>
      <rect x="1080" y="220" width="10" height="30" stroke="none" fill="url(#pixel)"/>

      <rect x="1090" y="180" width="10" height="20" stroke="none" fill="url(#pixel-transparent)"/>
      <rect x="1090" y="220" width="10" height="20" stroke="none" fill="url(#pixel-transparent)"/>
      <use href="#pixel-glow" x="1090" y="240" width="50" height="50"/>
      <rect x="1090" y="270" width="10" height="10" stroke="none" fill="url(#pixel)"/>
      <rect x="1090" y="280" width="10" height="10" stroke="none" fill="url(#pixel-transparent)"/>
      <rect x="1090" y="290" width="10" height="10" stroke="none" fill="url(#pixel)"/>
      <rect x="1090" y="300" width="10" height="10" stroke="none" fill="url(#pixel-transparent)"/>
      <rect x="1090" y="330" width="10" height="10" stroke="none" fill="url(#pixel-transparent)"/>
      <rect x="1090" y="390" width="10" height="10" stroke="none" fill="url(#pixel)"/>
      <rect x="1090" y="400" width="10" height="10" stroke="none" fill="url(#pixel-transparent)"/>
      <rect x="1090" y="410" width="10" height="10" stroke="none" fill="url(#pixel-transparent)"/>
      <rect x="1090" y="420" width="10" height="10" stroke="none" fill="url(#pixel)"/>

      <rect x="1100" y="160" width="10" height="10" stroke="none" fill="url(#pixel)"/>
      <rect x="1100" y="170" width="10" height="20" stroke="none" fill="url(#pixel-transparent)"/>
      <rect x="1100" y="190" width="10" height="10" stroke="none" fill="url(#pixel)"/>
      <rect x="1100" y="210" width="10" height="20" stroke="none" fill="url(#pixel)"/>
      <rect x="1100" y="230" width="10" height="20" stroke="none" fill="url(#pixel-transparent)"/>
      <rect x="1100" y="250" width="10" height="10" stroke="none" fill="url(#pixel)"/>
      <rect x="1100" y="260" width="10" height="10" stroke="none" fill="url(#pixel-transparent)"/>

      <rect x="1110" y="150" width="10" height="40" stroke="none" fill="url(#pixel)"/>
      <rect x="1110" y="200" width="10" height="10" stroke="none" fill="url(#pixel)"/>
      <rect x="1110" y="210" width="10" height="10" stroke="none" fill="url(#pixel-transparent)"/>
      <rect x="1110" y="220" width="10" height="70" stroke="none" fill="url(#pixel)"/>
      <rect x="1115" y="440" width="10" height="20" stroke="none" fill="url(#pixel-transparent)"/>
      <rect x="1115" y="460" width="10" height="20" stroke="none" fill="url(#pixel)"/>
      <rect x="1115" y="490" width="10" height="20" stroke="none" fill="url(#pixel-transparent)"/>
      <rect x="1115" y="510" width="10" height="20" stroke="none" fill="url(#pixel)"/>
      <rect x="1115" y="530" width="20" height="10" stroke="none" fill="url(#pixel-transparent)"/>

      <rect x="1120" y="150" width="10" height="30" stroke="none" fill="url(#pixel)"/>
      <rect x="1120" y="180" width="10" height="10" stroke="none" fill="url(#pixel-transparent)"/>
      <rect x="1120" y="210" width="10" height="30" stroke="none" fill="url(#pixel)"/>
      <rect x="1120" y="250" width="10" height="10" stroke="none" fill="url(#pixel)"/>
      <rect x="1120" y="260" width="10" height="10" stroke="none" fill="url(#pixel-transparent)"/>

      <rect x="1130" y="130" width="10" height="10" stroke="none" fill="url(#pixel)"/>
      <rect x="1130" y="140" width="10" height="10" stroke="none" fill="url(#pixel-transparent)"/>
      <rect x="1130" y="150" width="10" height="30" stroke="none" fill="url(#pixel)"/>
      <rect x="1130" y="180" width="10" height="20" stroke="none" fill="url(#pixel-transparent)"/>
      <rect x="1130" y="210" width="10" height="20" stroke="none" fill="url(#pixel)"/>
      <rect x="1130" y="260" width="10" height="10" stroke="none" fill="url(#pixel-transparent)"/>
      <rect x="1130" y="270" width="10" height="10" stroke="none" fill="url(#pixel)"/>
      <rect x="1135" y="500" width="10" height="10" stroke="none" fill="url(#pixel)"/>
      <use href="#pixel-glow" x="1140" y="510" width="50" height="50"/>
      <rect x="1135" y="520" width="10" height="20" stroke="none" fill="url(#pixel)"/>

      <rect x="1140" y="150" width="10" height="30" stroke="none" fill="url(#pixel)"/>
      <rect x="1140" y="220" width="10" height="10" stroke="none" fill="url(#pixel-transparent)"/>
      <rect x="1140" y="270" width="10" height="10" stroke="none" fill="url(#pixel)"/>
      <rect x="1140" y="280" width="10" height="10" stroke="none" fill="url(#pixel-transparent)"/>

      <rect x="1150" y="150" width="10" height="10" stroke="none" fill="url(#pixel-transparent)"/>
      <rect x="1150" y="170" width="10" height="10" stroke="none" fill="url(#pixel-transparent)"/>
      <rect x="1150" y="220" width="10" height="10" stroke="none" fill="url(#pixel-transparent)"/>
      <rect x="1150" y="240" width="10" height="10" stroke="none" fill="url(#pixel-transparent)"/>
      <rect x="1150" y="280" width="10" height="10" stroke="none" fill="url(#pixel)"/>

      <rect x="1160" y="240" width="10" height="20" stroke="none" fill="url(#pixel)"/>

      <rect x="1170" y="240" width="10" height="20" stroke="none" fill="url(#pixel-transparent)"/>
</svg>