<svg xmlns="http://www.w3.org/2000/svg" xmlns:xlink="http://www.w3.org/1999/xlink" width="19px" height="19px" viewBox="0 0 19.000000 19.000000">
<path fill-rule="evenodd"  fill="currentColor"
 d="M17.671,11.420 L16.408,11.631 C16.280,12.052 16.107,12.462 15.900,12.856 L16.645,13.901 C16.961,14.345 16.908,14.950 16.524,15.334 L15.404,16.454 C15.193,16.664 14.915,16.781 14.618,16.781 C14.385,16.781 14.159,16.710 13.971,16.574 L12.930,15.830 C12.539,16.037 12.129,16.206 11.704,16.337 L11.489,17.601 C11.399,18.138 10.937,18.529 10.392,18.529 L8.805,18.529 C8.259,18.529 7.797,18.138 7.707,17.601 L7.496,16.337 C7.086,16.210 6.688,16.048 6.308,15.849 L5.251,16.601 C5.063,16.736 4.841,16.807 4.608,16.807 C4.311,16.807 4.033,16.691 3.822,16.480 L2.702,15.360 C2.315,14.977 2.266,14.371 2.581,13.928 L3.322,12.898 C3.112,12.507 2.939,12.097 2.807,11.676 L1.529,11.458 C0.991,11.368 0.600,10.905 0.600,10.360 L0.600,8.777 C0.600,8.232 0.991,7.770 1.529,7.680 L2.777,7.469 C2.905,7.044 3.070,6.634 3.277,6.240 L2.525,5.183 C2.209,4.740 2.262,4.134 2.645,3.751 L3.770,2.631 C3.977,2.420 4.259,2.304 4.556,2.304 C4.789,2.304 5.014,2.375 5.202,2.510 L6.236,3.255 C6.627,3.044 7.037,2.871 7.459,2.740 L7.677,1.462 C7.767,0.924 8.229,0.533 8.775,0.533 L10.358,0.533 C10.903,0.533 11.365,0.924 11.456,1.462 L11.666,2.710 C12.106,2.841 12.531,3.018 12.937,3.232 L13.982,2.488 C14.170,2.353 14.392,2.281 14.625,2.281 C14.923,2.281 15.201,2.398 15.411,2.608 L16.532,3.729 C16.919,4.112 16.968,4.717 16.652,5.161 L15.908,6.202 C16.115,6.593 16.284,7.003 16.415,7.428 L17.679,7.642 C18.217,7.732 18.608,8.195 18.600,8.740 L18.600,10.322 C18.600,10.868 18.209,11.330 17.671,11.420 ZM17.596,8.740 C17.596,8.691 17.562,8.649 17.513,8.642 L15.934,8.375 C15.739,8.345 15.577,8.198 15.528,8.003 C15.385,7.450 15.167,6.920 14.874,6.428 C14.772,6.255 14.780,6.037 14.896,5.875 L15.825,4.571 C15.851,4.529 15.848,4.477 15.814,4.443 L14.693,3.322 C14.667,3.296 14.637,3.292 14.622,3.292 C14.603,3.292 14.584,3.300 14.565,3.311 L13.268,4.244 C13.103,4.360 12.888,4.368 12.715,4.266 C12.211,3.969 11.670,3.747 11.102,3.604 C10.907,3.556 10.760,3.394 10.726,3.195 L10.463,1.627 C10.455,1.578 10.414,1.544 10.365,1.544 L8.782,1.544 C8.733,1.544 8.692,1.578 8.684,1.627 L8.414,3.217 C8.380,3.413 8.233,3.571 8.041,3.623 C7.489,3.766 6.958,3.992 6.470,4.285 C6.297,4.386 6.078,4.379 5.913,4.262 L4.616,3.338 C4.601,3.326 4.582,3.319 4.559,3.319 C4.540,3.319 4.514,3.322 4.488,3.349 L3.367,4.469 C3.333,4.503 3.330,4.559 3.356,4.597 L4.292,5.913 C4.409,6.074 4.420,6.289 4.319,6.462 C4.029,6.954 3.815,7.488 3.676,8.041 C3.627,8.236 3.465,8.383 3.266,8.416 L1.698,8.680 C1.649,8.687 1.615,8.729 1.615,8.777 L1.615,10.360 C1.615,10.409 1.649,10.450 1.698,10.458 L3.288,10.728 C3.484,10.762 3.642,10.909 3.694,11.101 C3.837,11.653 4.063,12.183 4.356,12.672 C4.458,12.845 4.450,13.063 4.334,13.228 L3.409,14.525 C3.382,14.567 3.386,14.619 3.420,14.653 L4.540,15.773 C4.567,15.800 4.597,15.804 4.612,15.804 C4.631,15.804 4.650,15.796 4.668,15.785 L5.985,14.849 C6.071,14.785 6.176,14.755 6.278,14.755 C6.364,14.755 6.455,14.777 6.533,14.822 C7.019,15.101 7.537,15.315 8.075,15.454 C8.267,15.503 8.414,15.661 8.447,15.860 L8.711,17.439 C8.718,17.488 8.759,17.522 8.808,17.522 L10.392,17.522 C10.440,17.522 10.482,17.488 10.489,17.439 L10.756,15.860 C10.786,15.665 10.933,15.503 11.129,15.454 C11.681,15.311 12.211,15.093 12.704,14.800 C12.877,14.698 13.095,14.706 13.257,14.822 L14.562,15.751 C14.577,15.762 14.595,15.770 14.618,15.770 C14.637,15.770 14.663,15.766 14.689,15.740 L15.810,14.619 C15.844,14.586 15.848,14.529 15.821,14.492 L14.892,13.183 C14.776,13.018 14.768,12.804 14.870,12.631 C15.163,12.138 15.381,11.608 15.524,11.055 C15.573,10.864 15.731,10.717 15.930,10.683 L17.510,10.420 C17.558,10.413 17.592,10.371 17.592,10.322 L17.596,10.322 L17.596,8.740 ZM9.602,13.413 C7.459,13.413 5.718,11.672 5.718,9.529 C5.718,7.386 7.459,5.646 9.602,5.646 C11.745,5.646 13.486,7.386 13.486,9.529 C13.486,11.672 11.745,13.413 9.602,13.413 ZM9.602,6.661 C8.019,6.661 6.733,7.947 6.733,9.529 C6.733,11.112 8.019,12.398 9.602,12.398 C11.185,12.398 12.471,11.112 12.471,9.529 C12.471,7.947 11.185,6.661 9.602,6.661 Z"/>
</svg>