<svg version="1.0" xmlns="http://www.w3.org/2000/svg" width="22.000000pt" height="19.000000pt" viewBox="0 0 22.000000 19.000000" preserveAspectRatio="xMidYMid meet">
<g transform="translate(0.000000,19.000000) scale(0.100000,-0.100000)" fill="currentColor" stroke="none">
<path d="M53 178 c-13 -17 -53 -118 -53 -133 0 -16 33 -45 53 -45 8 0 25 12
36 26 l21 27 21 -27 c11 -14 28 -26 38 -26 19 0 51 30 51 47 0 16 -42 117 -55
131 -14 15 -45 6 -45 -14 0 -21 -17 -17 -23 6 -6 22 -30 26 -44 8z m28 -18 c5
-52 2 -65 -17 -62 -27 5 -28 8 -14 42 12 29 29 40 31 20z m89 -20 c14 -34 13
-37 -14 -42 -19 -3 -22 10 -17 62 2 20 19 9 31 -20z m-50 -45 c0 -19 -4 -35
-10 -35 -5 0 -10 16 -10 35 0 19 5 35 10 35 6 0 10 -16 10 -35z m-46 -21 c22
-21 3 -56 -27 -52 -25 3 -34 32 -17 53 16 19 25 19 44 -1z m119 -6 c14 -21 2
-48 -22 -48 -30 0 -45 34 -25 55 18 18 33 16 47 -7z"/>
</g>
</svg>