<svg version="1.1" xmlns="http://www.w3.org/2000/svg" xmlns:xlink="http://www.w3.org/1999/xlink" x="0px" y="0px" viewBox="0 0 1000 1000" enable-background="new 0 0 1000 1000" xml:space="preserve">
<g><g transform="translate(0.000000,511.000000) scale(0.100000,-0.100000)"><path d="M607.7,3291.9c-214.1-75-388.5-240.6-463.5-443.6C100,2735.7,100,2669.5,100,107v-2624.4l48.6-128c55.2-152.3,218.5-324.4,381.8-403.9l110.4-55.2H5000h4359.2l110.4,55.2c163.3,79.5,326.7,251.6,381.8,403.9l48.6,128V107v2624.4l-48.6,128c-55.2,152.3-218.5,324.4-381.8,403.9l-110.4,55.2l-4326.1,4.4C1141.8,3327.3,695.9,3325.1,607.7,3291.9z M9310.7,2775.5c90.5-70.6,105.9-167.7,99.3-626.8l-6.6-419.4H5000H596.6l-6.6,419.4c-6.6,459.1,8.8,556.2,99.3,626.8l57.4,46.4H5000h4253.3L9310.7,2775.5z M9414.4-577.3c0-1949,2.2-1913.7-112.6-1995.3c-46.4-33.1-408.3-35.3-4301.9-35.3c-3893.5,0-4255.5,2.2-4301.8,35.3c-114.8,81.7-112.6,46.3-112.6,1995.3v1809.9H5000h4414.4V-577.3z"/><path d="M1137.4,2486.3c-220.7-150.1-114.8-481.2,154.5-481.2c335.5,0,353.2,485.6,17.7,523.1C1234.5,2537.1,1199.2,2528.3,1137.4,2486.3z"/><path d="M1901.1,2492.9c-88.3-57.4-121.4-125.8-123.6-240.6c0-81.7,13.2-110.4,75-172.2c64-64,90.5-75,183.2-75c121.4,0,189.8,37.5,238.4,132.4C2399.9,2380.4,2124,2640.8,1901.1,2492.9z"/><path d="M2691.3,2512.8c-79.5-30.9-163.3-150.1-163.3-234c0-170,103.7-273.7,271.5-273.7c92.7,0,119.2,11,183.2,75c61.8,61.8,75,92.7,75,165.5C3057.7,2459.8,2878.9,2590.1,2691.3,2512.8z"/></g></g>
</svg>